<mxfile host="app.diagrams.net" modified="2023-04-17T10:01:26.441Z" agent="Mozilla/5.0 (Windows NT 10.0; Win64; x64) AppleWebKit/537.36 (KHTML, like Gecko) Chrome/112.0.0.0 Safari/537.36" etag="R8idfQxk2Bue20HfEsy-" version="21.1.8" type="device">
  <diagram name="Page-1" id="03018318-947c-dd8e-b7a3-06fadd420f32">
    <mxGraphModel dx="1134" dy="631" grid="1" gridSize="10" guides="1" tooltips="1" connect="1" arrows="1" fold="1" page="1" pageScale="1" pageWidth="1100" pageHeight="850" background="#ffffff" math="0" shadow="0">
      <root>
        <mxCell id="0" />
        <mxCell id="1" parent="0" />
        <mxCell id="2mcgBmo4-r53qx8QRAlZ-7" value="" style="rounded=1;whiteSpace=wrap;html=1;" vertex="1" parent="1">
          <mxGeometry x="727.5" y="980" width="250" height="350" as="geometry" />
        </mxCell>
        <mxCell id="2mcgBmo4-r53qx8QRAlZ-6" value="" style="rounded=1;whiteSpace=wrap;html=1;" vertex="1" parent="1">
          <mxGeometry x="426.75" y="980" width="250" height="350" as="geometry" />
        </mxCell>
        <mxCell id="2mcgBmo4-r53qx8QRAlZ-4" value="" style="rounded=1;whiteSpace=wrap;html=1;" vertex="1" parent="1">
          <mxGeometry x="142.5" y="980" width="250" height="350" as="geometry" />
        </mxCell>
        <mxCell id="677b7b8949515195-2" value="LOGO" style="whiteSpace=wrap;html=1;rounded=0;shadow=0;labelBackgroundColor=none;strokeWidth=1;fontFamily=Verdana;fontSize=28;align=center;comic=1;" parent="1" vertex="1">
          <mxGeometry x="505" y="30" width="90" height="80" as="geometry" />
        </mxCell>
        <mxCell id="677b7b8949515195-4" value="Topic 1" style="text;html=1;points=[];align=left;verticalAlign=top;spacingTop=-4;fontSize=14;fontFamily=Verdana" parent="1" vertex="1">
          <mxGeometry x="45" y="60" width="60" height="20" as="geometry" />
        </mxCell>
        <mxCell id="677b7b8949515195-5" value="Topic 2" style="text;html=1;points=[];align=left;verticalAlign=top;spacingTop=-4;fontSize=14;fontFamily=Verdana" parent="1" vertex="1">
          <mxGeometry x="125" y="60" width="60" height="20" as="geometry" />
        </mxCell>
        <mxCell id="677b7b8949515195-6" value="Topic 3" style="text;html=1;points=[];align=left;verticalAlign=top;spacingTop=-4;fontSize=14;fontFamily=Verdana" parent="1" vertex="1">
          <mxGeometry x="195" y="60" width="60" height="20" as="geometry" />
        </mxCell>
        <mxCell id="677b7b8949515195-7" value="Topic 4" style="text;html=1;points=[];align=left;verticalAlign=top;spacingTop=-4;fontSize=14;fontFamily=Verdana" parent="1" vertex="1">
          <mxGeometry x="265" y="60" width="60" height="20" as="geometry" />
        </mxCell>
        <mxCell id="677b7b8949515195-9" value="" style="line;strokeWidth=1;html=1;rounded=0;shadow=0;labelBackgroundColor=none;fillColor=none;fontFamily=Verdana;fontSize=14;fontColor=#000000;align=center;comic=1;" parent="1" vertex="1">
          <mxGeometry x="30" y="120" width="1060" height="10" as="geometry" />
        </mxCell>
        <mxCell id="677b7b8949515195-15" value="&lt;div style=&quot;text-align: justify&quot;&gt;&lt;font color=&quot;#ff0000&quot; style=&quot;font-size: 17px;&quot;&gt;900KČ&lt;/font&gt;&lt;/div&gt;" style="whiteSpace=wrap;html=1;rounded=0;shadow=0;labelBackgroundColor=none;strokeWidth=1;fillColor=none;fontFamily=Verdana;fontSize=12;align=center;verticalAlign=top;spacing=10;comic=1;" parent="1" vertex="1">
          <mxGeometry x="210" y="1150" width="115" height="45" as="geometry" />
        </mxCell>
        <mxCell id="677b7b8949515195-16" value="" style="verticalLabelPosition=bottom;shadow=0;dashed=0;align=center;html=1;verticalAlign=top;strokeWidth=1;shape=mxgraph.mockup.graphics.simpleIcon;strokeColor=#999999;rounded=0;labelBackgroundColor=none;fontFamily=Verdana;fontSize=14;fontColor=#000000;comic=1;" parent="1" vertex="1">
          <mxGeometry x="162.5" y="1000" width="208.5" height="130" as="geometry" />
        </mxCell>
        <mxCell id="2mcgBmo4-r53qx8QRAlZ-2" value="" style="verticalLabelPosition=bottom;shadow=0;dashed=0;align=center;html=1;verticalAlign=top;strokeWidth=1;shape=mxgraph.mockup.graphics.simpleIcon;strokeColor=#999999;rounded=0;labelBackgroundColor=none;fontFamily=Verdana;fontSize=14;fontColor=#000000;comic=1;" vertex="1" parent="1">
          <mxGeometry x="452.5" y="1000" width="198.5" height="130" as="geometry" />
        </mxCell>
        <mxCell id="2mcgBmo4-r53qx8QRAlZ-3" value="" style="verticalLabelPosition=bottom;shadow=0;dashed=0;align=center;html=1;verticalAlign=top;strokeWidth=1;shape=mxgraph.mockup.graphics.simpleIcon;strokeColor=#999999;rounded=0;labelBackgroundColor=none;fontFamily=Verdana;fontSize=14;fontColor=#000000;comic=1;" vertex="1" parent="1">
          <mxGeometry x="752.5" y="1000" width="200" height="130" as="geometry" />
        </mxCell>
        <mxCell id="2mcgBmo4-r53qx8QRAlZ-8" value="&lt;div style=&quot;text-align: justify&quot;&gt;&lt;span&gt;Lorem ipsum dolor sit ametconsectetur adipisicing elit, sed do eiusmod tempor incididunt &lt;/span&gt;&lt;span style=&quot;background-color: initial;&quot;&gt;ratione voluptatem sequi nesciunt.&amp;nbsp;&lt;/span&gt;&lt;/div&gt;" style="whiteSpace=wrap;html=1;rounded=0;shadow=0;labelBackgroundColor=none;strokeWidth=1;fillColor=none;fontFamily=Verdana;fontSize=12;align=center;verticalAlign=top;spacing=10;comic=1;" vertex="1" parent="1">
          <mxGeometry x="461.75" y="1145" width="180" height="100" as="geometry" />
        </mxCell>
        <mxCell id="2mcgBmo4-r53qx8QRAlZ-9" value="&lt;div style=&quot;text-align: justify&quot;&gt;&lt;span&gt;Lorem ipsum dolor sit ametconsectetur adipisicing elit, sed do eiusmod tempor incididunt &lt;/span&gt;&lt;span style=&quot;background-color: initial;&quot;&gt;ratione voluptatem sequi nesciunt.&amp;nbsp;&lt;/span&gt;&lt;/div&gt;" style="whiteSpace=wrap;html=1;rounded=0;shadow=0;labelBackgroundColor=none;strokeWidth=1;fillColor=none;fontFamily=Verdana;fontSize=12;align=center;verticalAlign=top;spacing=10;comic=1;" vertex="1" parent="1">
          <mxGeometry x="762.5" y="1145" width="180" height="100" as="geometry" />
        </mxCell>
        <mxCell id="2mcgBmo4-r53qx8QRAlZ-11" value="" style="rounded=0;whiteSpace=wrap;html=1;" vertex="1" parent="1">
          <mxGeometry y="1580" width="1100" height="120" as="geometry" />
        </mxCell>
        <mxCell id="2mcgBmo4-r53qx8QRAlZ-12" value="&lt;div style=&quot;&quot;&gt;Kontakt&lt;/div&gt;&lt;div style=&quot;&quot;&gt;tel: 85858585&lt;/div&gt;&lt;div style=&quot;&quot;&gt;email: dhgf@ebv.cz&lt;/div&gt;" style="whiteSpace=wrap;html=1;rounded=0;shadow=0;labelBackgroundColor=none;strokeWidth=1;fillColor=none;fontFamily=Verdana;fontSize=12;align=left;verticalAlign=top;spacing=10;comic=1;strokeColor=none;" vertex="1" parent="1">
          <mxGeometry x="30" y="1600" width="180" height="100" as="geometry" />
        </mxCell>
        <mxCell id="2mcgBmo4-r53qx8QRAlZ-13" value="&lt;div style=&quot;&quot;&gt;nalistmto s.r.o&lt;/div&gt;&lt;div style=&quot;&quot;&gt;ičo: 34747848&lt;/div&gt;&lt;div style=&quot;&quot;&gt;&lt;br&gt;&lt;/div&gt;" style="whiteSpace=wrap;html=1;rounded=0;shadow=0;labelBackgroundColor=none;strokeWidth=1;fillColor=none;fontFamily=Verdana;fontSize=12;align=center;verticalAlign=top;spacing=10;comic=1;strokeColor=none;" vertex="1" parent="1">
          <mxGeometry x="381" y="1600" width="181" height="100" as="geometry" />
        </mxCell>
        <mxCell id="2mcgBmo4-r53qx8QRAlZ-14" value="&lt;br&gt;Naleštíme vám bambus za skvělou cenu!" style="whiteSpace=wrap;html=1;rounded=0;shadow=0;labelBackgroundColor=none;strokeWidth=1;fillColor=none;fontFamily=Verdana;fontSize=12;align=center;verticalAlign=top;spacing=10;comic=1;strokeColor=none;" vertex="1" parent="1">
          <mxGeometry x="890" y="1600" width="181" height="100" as="geometry" />
        </mxCell>
        <mxCell id="2mcgBmo4-r53qx8QRAlZ-15" value="&lt;font style=&quot;font-size: 20px;&quot;&gt;Koupit&lt;/font&gt;" style="rounded=0;whiteSpace=wrap;html=1;" vertex="1" parent="1">
          <mxGeometry x="207.5" y="1245" width="120" height="60" as="geometry" />
        </mxCell>
        <mxCell id="2mcgBmo4-r53qx8QRAlZ-16" value="" style="rounded=0;whiteSpace=wrap;html=1;" vertex="1" parent="1">
          <mxGeometry x="30" y="270" width="1050" height="360" as="geometry" />
        </mxCell>
        <mxCell id="2mcgBmo4-r53qx8QRAlZ-18" value="login" style="text;html=1;points=[];align=left;verticalAlign=top;spacingTop=-4;fontSize=14;fontFamily=Verdana" vertex="1" parent="1">
          <mxGeometry x="952.5" y="60" width="60" height="20" as="geometry" />
        </mxCell>
      </root>
    </mxGraphModel>
  </diagram>
</mxfile>
